<svg xmlns="http://www.w3.org/2000/svg" xmlns:xlink="http://www.w3.org/1999/xlink" width="210" height="160" version="1.1" viewBox="0 0 210 160"><title>icons</title><desc>Created with Sketch.</desc><g id="Website" fill="none" fill-rule="evenodd" stroke="none" stroke-width="1"><g id="icons"><g id="icon-dpos" transform="translate(31.000000, 34.000000)"><path id="Path-1517" stroke="#546979" stroke-width=".8" d="M73.2178218,42.4565217 L101,84 L58.1881188,83.5434783 L37.6930693,42 L9,66.1956522 L29.4950495,83.5434783 L73.2178218,42.4565217 Z"/><path id="Path-1516" stroke="#546979" stroke-width=".8" d="M106.138158,7 L73,43 L142,43 L106.138158,7 Z"/><ellipse id="Oval-57-Copy" cx="73" cy="43.5" fill="#73C9C9" stroke="#546979" stroke-width=".8" rx="8" ry="8.5"/><path id="Fill-4-Copy" fill="#FFF" d="M72.9995111,48 C75.761807,48 78,45.7615881 78,43 C78,40.2384119 75.761807,38 72.9995111,38 C70.238193,38 68,40.2384119 68,43 C68,45.7615881 70.238193,48 72.9995111,48 L72.9995111,48 Z M71.1739513,42.6753374 L72.1938007,43.6952865 L74.4740393,41.2740074 L74.8025814,40.9258752 L75.5017112,41.5869353 L75.1731691,41.9340896 L72.5526547,44.7113241 L72.2162902,45.0702132 L70.8375868,43.6913749 L70.5022001,43.3520438 L71.1739513,42.6753374 Z"/><ellipse id="Oval-57-Copy-2" cx="106" cy="8.5" fill="#F7A696" stroke="#546979" stroke-width=".8" rx="8" ry="8.5"/><ellipse id="Oval-57-Copy-3" cx="140" cy="43.5" fill="#FDE699" stroke="#546979" stroke-width=".8" rx="8" ry="8.5"/><ellipse id="Oval-57-Copy-4" cx="100" cy="83.5" fill="#F6FAFC" stroke="#546979" stroke-width=".8" rx="8" ry="8.5"/><ellipse id="Oval-57-Copy-5" cx="59" cy="83.5" fill="#D8D8D8" stroke="#546979" stroke-width=".8" rx="8" ry="8.5"/><ellipse id="Oval-57-Copy-6" cx="29" cy="83.5" fill="#ACD7F7" stroke="#546979" stroke-width=".8" rx="8" ry="8.5"/><ellipse id="Oval-57-Copy-7" cx="8" cy="67.5" fill="#F6FAFC" stroke="#546979" stroke-width=".8" rx="8" ry="8.5"/><ellipse id="Oval-57-Copy-8" cx="37" cy="43.5" fill="#D8D8D8" stroke="#546979" stroke-width=".8" rx="8" ry="8.5"/><text id="DPOS" fill="#CFD8DC" font-family="Proxima Nova" font-size="15.573" font-weight="260"><tspan x="106" y="70">DPOS</tspan></text></g></g></g></svg>